<svg width="60" height="60" viewBox="0 0 60 60" fill="none" xmlns="http://www.w3.org/2000/svg">
<path d="M50.3725 33.7278L50.2605 33.6822C50.7141 31.2122 50.7165 28.6446 50.2242 26.0968L53.9738 22.4706L52.306 18.4422L46.9719 18.2404L46.9249 18.2585C45.4736 16.1701 43.6756 14.406 41.6377 13.014L41.63 7.66924L37.609 6L33.6846 9.73686C31.2638 9.29156 28.7491 9.27477 26.2528 9.73045L22.3597 6.04688L18.4195 7.68226L18.3517 12.9919C16.2253 14.4542 14.426 16.273 13.0123 18.338L7.70029 18.3457L6 22.4548L9.71865 26.3063C9.27303 28.7163 9.24687 31.2188 9.68984 33.7056L9.50759 33.7811L6.05999 37.6273L7.72505 41.657L12.8065 41.5242L12.8444 41.5087C14.2917 43.6712 16.1054 45.4978 18.1694 46.934L18.0963 47.1111L18.4507 52.3204L22.4741 53.9883L26.3518 50.4391L26.4039 50.3194C28.8273 50.7412 31.3447 50.7346 33.8436 50.2554L37.5752 54L41.5986 52.3321L41.7472 46.9263C43.8214 45.481 45.5753 43.6907 46.9615 41.6714L46.985 41.6818L52.301 41.6637L54 37.5519L50.3725 33.7278ZM46.4508 30.6941C46.4377 31.0287 46.4246 31.3634 46.3907 31.6991C46.3779 31.8242 46.383 31.9532 46.3672 32.0767L46.3387 32.065C46.1588 33.4998 45.8045 34.936 45.2233 36.337C44.6605 37.7055 43.9179 38.9424 43.0605 40.0621L43.0632 40.0635C43.0552 40.0752 43.0448 40.083 43.0344 40.0947C40.3609 43.571 36.4338 45.7923 32.1889 46.3663L32.1913 46.3768C32.1524 46.3821 32.1107 46.3794 32.0715 46.3848C30.8181 46.5461 29.544 46.5655 28.2645 46.4277C28.1759 46.421 28.0847 46.425 27.9987 46.4146L28.0064 46.3925C26.5575 46.2154 25.1061 45.8573 23.6911 45.2701C22.263 44.6776 20.9731 43.8953 19.8163 42.9825L19.7902 43.0422C18.6489 42.1519 17.6221 41.096 16.7335 39.9059L16.8 39.8784C15.0997 37.5895 14.0105 34.8944 13.6548 32.0613L13.5947 32.086C13.4266 30.6888 13.4344 29.2905 13.6142 27.9234L13.6652 27.9431C13.8461 26.52 14.1981 25.0955 14.7726 23.7049C15.3433 22.3261 16.0913 21.0813 16.9588 19.9539L16.9185 19.9368C17.0306 19.791 17.1661 19.6635 17.282 19.5214C17.3564 19.4305 17.437 19.3457 17.5141 19.2558C18.2423 18.4097 19.0319 17.6103 19.9308 16.9148L19.9492 16.9551C24.4676 13.475 30.6591 12.4295 36.306 14.7718C41.8905 17.0879 45.5101 22.1269 46.3021 27.7151L46.336 27.702C46.3569 27.8479 46.3517 27.9951 46.3672 28.1396C46.4038 28.4481 46.4169 28.7606 46.435 29.0705C46.469 29.6147 46.4743 30.1539 46.4508 30.6941ZM38.8877 35.8141L38.8587 29.0986C38.8587 24.7887 35.0763 21.2954 30.569 21.2954C26.0616 21.2954 22.2768 24.7887 22.2768 29.0986L22.3056 35.8141C21.6624 35.8141 21.1416 36.3142 21.1416 36.9294C21.1416 37.5445 21.6624 38.0446 22.3056 38.0446H38.8877C39.5308 38.0446 40.0541 37.5445 40.0541 36.9294C40.0541 36.3142 39.5308 35.8141 38.8877 35.8141ZM35.2778 33.7838C35.2778 34.2347 35.2154 34.5896 35.1122 35.0046H26.0712C25.9655 34.5896 25.9034 34.2347 25.9034 33.7838L25.884 29.3757C25.884 26.602 28.013 24.3535 30.5762 24.3535C33.1395 24.3535 35.3091 26.6019 35.3091 29.3757L35.2778 33.7838Z" fill="url(#paint0_linear_4_3943)"/>
<defs>
<linearGradient id="paint0_linear_4_3943" x1="-24.9013" y1="87.7833" x2="90.667" y2="87.7833" gradientUnits="userSpaceOnUse">
<stop stop-color="#84A7FF" stop-opacity="0.01"/>
<stop offset="0.1785" stop-color="#02C6FF"/>
<stop offset="0.745645" stop-color="#0368FF"/>
<stop offset="1" stop-color="#5783F6" stop-opacity="0.178267"/>
</linearGradient>
</defs>
</svg>
