<svg width="60" height="60" viewBox="0 0 60 60" fill="none" xmlns="http://www.w3.org/2000/svg">
<path d="M29.9181 3.7627C15.453 3.7627 3.72656 15.4891 3.72656 29.9542C3.72656 44.4193 15.453 56.1457 29.9181 56.1457C44.3832 56.1457 56.1096 44.4193 56.1096 29.9542C56.1096 15.4891 44.3829 3.7627 29.9181 3.7627ZM43.2036 27.2692C43.1695 27.3175 43.1323 27.3635 43.0923 27.4069L24.1032 47.5048C23.9955 47.621 23.8623 47.7104 23.7141 47.7661C23.4281 47.8891 23.1211 47.9559 22.8099 47.9629C22.5951 47.9664 22.3821 47.9244 22.1847 47.8398C21.9873 47.7551 21.81 47.6297 21.6645 47.4718C21.5191 47.3011 21.4109 47.1021 21.3467 46.8873C21.2824 46.6726 21.2636 46.4468 21.2913 46.2244C21.2994 46.153 21.3159 46.0825 21.3399 46.0147L25.5 33.973H18.0462C18.0018 33.976 17.9571 33.9772 17.9127 33.9766C17.0085 33.9766 16.6236 33.5119 16.4754 33.2365C16.3479 32.9818 16.298 32.6953 16.3317 32.4126C16.3655 32.1298 16.4815 31.8631 16.6653 31.6456L32.8512 12.4912C32.9343 12.3913 33.0354 12.3079 33.1494 12.2452C33.4884 12.0595 33.8664 11.9563 34.2528 11.944C34.469 11.9404 34.6836 11.9823 34.8827 12.0669C35.0818 12.1515 35.2608 12.2769 35.4084 12.4351C35.7522 12.8155 35.8866 13.3486 35.811 14.0236C35.8076 14.0553 35.8021 14.0868 35.7945 14.1178L33.6324 24.8797L42.0429 24.9319L42.1185 24.9355C42.9387 25.0012 43.2675 25.4986 43.3725 25.7113C43.7193 26.4145 43.3296 27.0796 43.2054 27.2692H43.2036Z" fill="url(#paint0_linear_4_3946)"/>
<defs>
<linearGradient id="paint0_linear_4_3946" x1="-29.9965" y1="93.0138" x2="96.1247" y2="93.0138" gradientUnits="userSpaceOnUse">
<stop stop-color="#84A7FF" stop-opacity="0.01"/>
<stop offset="0.1785" stop-color="#02C6FF"/>
<stop offset="0.745645" stop-color="#0368FF"/>
<stop offset="1" stop-color="#5783F6" stop-opacity="0.178267"/>
</linearGradient>
</defs>
</svg>
