<svg width="60" height="60" viewBox="0 0 60 60" fill="none" xmlns="http://www.w3.org/2000/svg">
<path d="M29.9336 6C30.5335 6.00006 31.1337 6.19992 31.667 6.5332C32.6672 7.20013 36.2001 10.5999 39.2666 11.2666C41.5999 11.8666 44.1337 11.9336 45.4004 11.9336H46.9336C47.6668 11.9337 48.4001 12.2001 49 12.7334C49.6666 13.3334 50 14.1336 50 14.9336V22.4668C49.9999 50.2657 31.268 53.8 30.4668 53.9336C30.2669 54.0002 30.1334 54 29.9336 54C29.7337 54 29.6002 53.9337 29.4004 53.9336C28.6004 53.8003 10.0001 50.2667 10 22.4668V14.9336C10 14.1336 10.3336 13.3331 10.9336 12.7998C11.5335 12.2667 12.2666 12.0001 13.0664 12H14.5996C15.8663 12 18.4665 11.933 20.7998 11.333C24.3998 10.4663 28.0669 6.59987 28.2002 6.5332C28.7335 6.19994 29.3337 6 29.9336 6ZM36.3994 20.2666C35.3993 16.667 31.9996 14.5335 28.2666 15.5332C24.4669 16.5331 22.7332 20.0665 23.666 23.5996L23.9834 25.0664H22.6006C20.8009 25.0664 19.3345 26.5334 19.334 28.333V38.0664C19.334 39.8664 20.8006 41.333 22.6006 41.333H37.4004C39.2003 41.3329 40.667 39.8664 40.667 38.0664V28.333C40.6665 26.5334 39.2 25.0665 37.4004 25.0664H25.6699L25.2666 23.2002C24.5335 20.5337 25.7996 17.8662 28.666 17.1328C31.5325 16.3996 33.9997 18.0006 34.7998 20.667L35.1328 22.0664C35.2661 22.533 35.6662 22.8002 36.1328 22.667C36.5326 22.5336 36.7998 22.0668 36.7334 21.667L36.3994 20.2666ZM37.4004 26.7334C38.3334 26.7335 39.0669 27.4668 39.0674 28.333V38.0664C39.0674 38.933 38.3337 39.6669 37.4004 39.667H22.6006C21.6673 39.667 20.9336 38.9331 20.9336 38.0664V28.333C20.9341 27.4667 21.6676 26.7334 22.6006 26.7334H37.4004ZM30 30C29.067 30.0001 28.3343 30.7332 28.334 31.5996C28.334 32.1953 28.6804 32.7281 29.2002 33.0029V35.666C29.2002 36.1327 29.5333 36.4658 30 36.4658C30.4 36.4658 30.7998 36.1327 30.7998 35.666V33.0029C31.3198 32.7282 31.667 32.1955 31.667 31.5996C31.6667 30.7332 30.9332 30 30 30ZM30 31C30.4081 31 30.6667 31.3123 30.667 31.5996C30.667 31.7976 30.55 32.0044 30.333 32.1191L30 32.2939L29.668 32.1191C29.4517 32.0048 29.334 31.7984 29.334 31.5996C29.3343 31.3118 29.5926 31.0001 30 31Z" fill="url(#paint0_linear_4_3656)"/>
<defs>
<linearGradient id="paint0_linear_4_3656" x1="-15.7511" y1="87.7833" x2="80.5558" y2="87.7833" gradientUnits="userSpaceOnUse">
<stop stop-color="#84A7FF" stop-opacity="0.01"/>
<stop offset="0.1785" stop-color="#02C6FF"/>
<stop offset="0.745645" stop-color="#0368FF"/>
<stop offset="1" stop-color="#5783F6" stop-opacity="0.178267"/>
</linearGradient>
</defs>
</svg>
